<svg height="77" viewBox="0 0 512 512" width="70" xmlns="http://www.w3.org/2000/svg"><linearGradient id="a" gradientUnits="userSpaceOnUse" x1="225.816" x2="864.887" y1="256.003" y2="256.003"><stop offset=".001" stop-color="#fff0d5"/><stop offset=".511" stop-color="#ffdfff"/><stop offset="1" stop-color="#d9ceff"/></linearGradient><path d="M505.626 291.92c-11.826-34.61-38.138-60.16-69.852-72.202-16.43-6.239-27.346-21.856-27.587-39.429a111.54 111.54 0 00-.021-1.154c-1.507-64.582-55.488-116.33-120.077-115.221-38.094.654-71.788 19.355-92.905 47.92-18.185 24.599-46.49 39.965-77.08 39.949-.898 0-1.797.009-2.7.029C53.487 153.166.837 206.29.011 268.216c-.88 65.931 52.302 119.654 118.032 119.654 50.947 0 94.349-32.277 110.886-77.497 4.327-11.832 17.152-18.174 29.283-14.772l.455.127c11.099 3.064 18.458 13.64 17.55 25.119-1.217 15.383.581 31.255 5.798 46.796 20.521 61.135 87.188 94.685 148.493 74.68 62.711-20.465 96.379-88.185 75.118-150.403z" fill="url(#a)"/><path d="M461 142.074c0-43.968-35.643-79.612-79.612-79.612-33.531 0-62.199 20.74-73.931 50.082H67.942c-9.357 0-16.942 7.585-16.942 16.941v220.846c0 9.357 7.585 16.942 16.942 16.942h308.447c9.357 0 16.942-7.585 16.942-16.942v-129.54C431.633 215.029 461 181.983 461 142.074z" fill="#590bb2" opacity=".1"/><path d="M272.986 453.429H171.344l13.247-52.516 7.079-28.052h60.99l7.079 28.052z" fill="#afabc6"/><path d="M259.739 400.913h-75.148l7.079-28.052h60.99z" fill="#8e8ca8"/><path d="M272.989 458.424H171.341a4.998 4.998 0 01-4.847-6.223l15.997-63.397a5 5 0 119.695 2.446l-14.427 57.174h88.813l-14.557-57.69a5 5 0 119.695-2.446l16.127 63.914a4.998 4.998 0 01-4.848 6.222z" fill="#590bb2"/><path d="M376.389 388.273H67.942c-9.357 0-16.942-7.585-16.942-16.941V150.486c0-9.357 7.585-16.942 16.942-16.942h308.447c9.357 0 16.941 7.585 16.941 16.942v220.846c0 9.356-7.585 16.941-16.941 16.941z" fill="#f5f4f9"/><path d="M393.327 150.482v104.954a80.57 80.57 0 01-11.937.89c-43.972 0-79.618-35.646-79.618-79.608 0-15.915 4.664-30.737 12.714-43.174h61.903c9.359-.001 16.938 7.589 16.938 16.938z" fill="#e8e6ed"/><path d="M269.133 147.679h81.991v195.435h-81.991z" fill="#ffd5b8"/><path d="M351.125 147.679v102.684c-28.967-11.906-49.352-40.402-49.352-73.645 0-10.249 1.933-20.038 5.462-29.039z" fill="#ffbe92"/><path d="M364.852 343.116H255.408v-80.913a3.069 3.069 0 013.069-3.069h103.308a3.069 3.069 0 013.069 3.069v80.913z" fill="#e2ccff"/><path d="M364.852 283.668H255.408v-21.464a3.069 3.069 0 013.069-3.069h103.308a3.069 3.069 0 013.069 3.069v21.464zm28.478-106.955v-26.227c0-9.357-7.585-16.942-16.941-16.942H67.942c-9.356 0-16.942 7.585-16.942 16.942v26.227z" fill="#c182f9"/><path d="M301.772 181.713H51a5 5 0 110-10h250.772a5 5 0 110 10z" fill="#590bb2"/><path d="M51 343.116v28.215c0 9.357 7.585 16.941 16.942 16.941h308.447c9.356 0 16.941-7.585 16.941-16.941v-28.215z" fill="#cecae0"/><g fill="#590bb2"><path d="M290.214 458.424H154.117a5 5 0 110-10h136.097a5 5 0 110 10zM85.127 160.194a5 5 0 01-5-5v-.13a5 5 0 1110 0v.13a5 5 0 01-5 5zm17.318 0a5 5 0 01-5-5v-.13a5 5 0 1110 0v.13a5 5 0 01-5 5zm17.319 0a5 5 0 01-5-5v-.13a5 5 0 1110 0v.13a5 5 0 01-5 5zm256.625 233.079H67.941C55.843 393.273 46 383.43 46 371.331v-28.215a5 5 0 015-5h337.33v-94.178a5 5 0 1110 0v127.393c0 12.099-9.843 21.942-21.941 21.942zM56 348.116v23.215c0 6.585 5.356 11.942 11.941 11.942h308.447c6.585 0 11.941-5.357 11.941-11.942v-23.215z"/><path d="M51 319.947a5 5 0 01-5-5V150.486c0-12.099 9.843-21.941 21.941-21.941H279.42a5 5 0 110 10H67.941c-6.585 0-11.941 5.357-11.941 11.941v164.461a5 5 0 01-5 5z"/></g><circle cx="381.388" cy="163.074" fill="#ffa052" r="79.612"/><path d="M381.389 247.685c-46.655 0-84.612-37.957-84.612-84.612s37.957-84.611 84.612-84.611S466 116.419 466 163.073c0 46.656-37.956 84.612-84.611 84.612zm0-159.223c-41.142 0-74.612 33.471-74.612 74.611 0 41.141 33.471 74.612 74.612 74.612S456 204.214 456 163.073c0-41.14-33.471-74.611-74.611-74.611z" fill="#590bb2"/><circle cx="381.388" cy="163.074" fill="#fff4c5" r="59.029"/><path d="M369.967 189.668a7.671 7.671 0 01-5.425-2.247l-15.683-15.684a7.671 7.671 0 010-10.849 7.671 7.671 0 0110.85 0l10.258 10.259 33.103-33.103a7.672 7.672 0 0110.85 10.849l-38.528 38.527a7.671 7.671 0 01-5.425 2.248z" fill="#ffa052"/><path d="M179.212 243.938h-89.98a5.123 5.123 0 010-10.246h89.981a5.123 5.123 0 11-.001 10.246z" fill="#ddd9e4"/><path d="M229.098 243.938h-24.577a5.123 5.123 0 010-10.246h24.577a5.123 5.123 0 010 10.246z" fill="#ffbe92"/><path d="M229.098 264.258H89.232a5.123 5.123 0 010-10.246h139.866a5.123 5.123 0 010 10.246z" fill="#ddd9e4"/><path d="M94.918 222.699a5 5 0 01-3.535-1.464l-6.978-6.978a5 5 0 117.07-7.071l3.442 3.442 12.28-12.28a5 5 0 017.07 7.071l-15.815 15.816a4.996 4.996 0 01-3.534 1.464z" fill="#b557ff"/><path d="M117.841 325.723h-28.61a5.123 5.123 0 010-10.246h28.61a5.123 5.123 0 010 10.246z" fill="#ddd9e4"/><path d="M229.098 325.723H143.15a5.123 5.123 0 010-10.246h85.948a5.123 5.123 0 010 10.246z" fill="#ffbe92"/><path d="M94.918 304.484a5.004 5.004 0 01-3.536-1.464l-6.978-6.978a5 5 0 017.072-7.071l3.441 3.442 12.28-12.28a5 5 0 017.07 7.071L98.453 303.02a5 5 0 01-3.535 1.464z" fill="#b557ff"/><path d="M209.433 85.612a5 5 0 01-3.535-1.464L194.879 73.13a5 5 0 010-7.072l11.019-11.018a4.998 4.998 0 017.07 0l11.018 11.018a5 5 0 010 7.071l-11.018 11.018a4.999 4.999 0 01-3.535 1.465zm-3.948-16.018l3.947 3.947 3.946-3.947-3.946-3.947z" fill="#ffa052"/><path d="M436.299 304.007a5 5 0 01-5-5c0-3.318-2.7-6.018-6.019-6.018a5 5 0 110-10c3.318 0 6.019-2.7 6.019-6.018a5 5 0 1110 0 6.025 6.025 0 006.018 6.018 5 5 0 110 10 6.025 6.025 0 00-6.018 6.018 5 5 0 01-5 5z" fill="#c182f9"/><path d="M171.165 103.717a5 5 0 01-5-5 6.025 6.025 0 00-6.018-6.018 5 5 0 110-10c3.318 0 6.018-2.7 6.018-6.018a5 5 0 1110 0 6.025 6.025 0 006.018 6.018 5 5 0 110 10 6.025 6.025 0 00-6.018 6.018 5 5 0 01-5 5z" fill="#ffe783"/><path d="M373.439 434.068a5 5 0 01-5-5c0-3.318-2.7-6.018-6.019-6.018a5 5 0 110-10c3.318 0 6.019-2.7 6.019-6.018a5 5 0 1110 0 6.025 6.025 0 006.018 6.018 5 5 0 110 10 6.025 6.025 0 00-6.018 6.018 5 5 0 01-5 5z" fill="#ffa052"/><circle cx="327.04" cy="300.156" fill="#f5f4f9" r="5.59"/><circle cx="310.13" cy="300.156" fill="#f5f4f9" r="5.59"/><circle cx="293.22" cy="300.156" fill="#f5f4f9" r="5.59"/></svg>