<svg height="77" viewBox="0 0 512 512" width="70" xmlns="http://www.w3.org/2000/svg"><linearGradient id="a" gradientUnits="userSpaceOnUse" x1="215.709" x2="852.345" y1="256" y2="256"><stop offset=".001" stop-color="#fff0d5"/><stop offset=".511" stop-color="#ffdfff"/><stop offset="1" stop-color="#d9ceff"/></linearGradient><path d="M408.228 154.262c-23.697-9.236-43.717-26.089-55.961-48.381-20.59-37.487-60.43-62.898-106.221-62.898-47.53 0-88.646 27.377-108.477 67.219-12.146 24.401-32.814 43.56-58.09 53.761C42.13 179.037 10.776 213.487.826 267.345a49.29 49.29 0 00-.016 17.896c15.448 83.572 82.399 120.435 143.334 110.66 34.126-5.474 68.672 5.909 93.967 29.462 51.434 47.892 133.884 62.907 213.923 11.57 9.377-6.014 21.957-18.634 27.966-28.015 68.967-107.67 17.879-219.714-71.772-254.656z" fill="url(#a)"/><path d="M456 103.769v254.25c0 8.28-6.72 15-15 15H71c-8.28 0-15-6.72-15-15v-254.25c0-8.28 6.72-15 15-15h370c8.28 0 15 6.72 15 15z" fill="#590bb2" opacity=".1"/><path d="M312.71 466.726H199.289l22.682-89.905h68.057z" fill="#afabc6"/><path d="M297.928 408.123h-83.857l7.9-31.302h68.057z" fill="#8e8ca8"/><path d="M456 124.772v254.25c0 8.28-6.72 15-15 15H71c-8.28 0-15-6.72-15-15v-254.25c0-8.28 6.72-15 15-15h370c8.28 0 15 6.72 15 15z" fill="#f5f4f9"/><path d="M428 343.629H214V189.693a3 3 0 013-3h208a3 3 0 013 3z" fill="#e8e6ed"/><path d="M428 207.801H214v-18.107a3 3 0 013-3h208a3 3 0 013 3z" fill="#fdd250"/><path d="M456 157.943v-33.171c0-8.284-6.716-15-15-15H71c-8.284 0-15 6.716-15 15v33.171z" fill="#ffa052"/><path d="M56 343.629v35.39c0 8.284 6.716 15 15 15h370c8.284 0 15-6.716 15-15v-35.39z" fill="#cecae0"/><g fill="#590bb2"><path d="M94.082 128.785a5 5 0 00-5 5v.145a5 5 0 1010 0v-.145a5 5 0 00-5-5zm19.325 0a5 5 0 00-5 5v.145a5 5 0 1010 0v-.145a5 5 0 00-5-5zm19.324 0a5 5 0 00-5 5v.145a5 5 0 1010 0v-.145a5 5 0 00-5-5z"/><path d="M441 104.771H71c-11.028 0-20 8.972-20 20v33.172a5 5 0 005 5h395v175.686H61V185.483a5 5 0 10-10 0v193.535c0 11.028 8.972 20 20 20h140.214l-15.82 62.701h-15.328a5 5 0 100 10h19.223a5 5 0 004.848-3.776l17.39-68.925h68.944l15.818 62.701-79.46.006a5 5 0 100 10l105.104-.006a5 5 0 100-10h-15.331l-15.818-62.701H441c11.028 0 20-8.972 20-20V124.771c0-11.028-8.972-20-20-20zM61 152.943v-28.172c0-5.514 4.486-10 10-10h370c5.514 0 10 4.486 10 10v28.172zm380 236.076H71c-5.514 0-10-4.486-10-10v-30.39h390v30.39c0 5.513-4.486 10-10 10z"/></g><circle cx="143.066" cy="226.332" fill="#fdd250" r="40.143"/><path d="M159.679 220.525c0-9.16-7.453-16.612-16.613-16.612s-16.613 7.452-16.613 16.612c0 4.518 1.818 8.615 4.755 11.613-2.936 2.998-4.755 7.096-4.755 11.613a5 5 0 1010 0c0-3.646 2.966-6.613 6.613-6.613s6.613 2.967 6.613 6.613a5 5 0 1010 0c0-4.518-1.818-8.615-4.755-11.613 2.937-2.997 4.755-7.095 4.755-11.613zm-16.613-6.612c3.646 0 6.613 2.966 6.613 6.612s-2.967 6.613-6.613 6.613-6.613-2.967-6.613-6.613 2.966-6.612 6.613-6.612zm242.261 42.397H256.673c-7.828 0-14.173-6.346-14.173-14.173 0-7.828 6.346-14.173 14.173-14.173h128.654c7.828 0 14.173 6.346 14.173 14.173s-6.346 14.173-14.173 14.173z" fill="#f5f4f9"/><circle cx="304.089" cy="242.353" fill="#c182f9" r="5.59"/><circle cx="321" cy="242.353" fill="#c182f9" r="5.59"/><circle cx="337.911" cy="242.353" fill="#c182f9" r="5.59"/><path d="M385.327 295.81H256.673c-7.828 0-14.173-6.346-14.173-14.173 0-7.828 6.346-14.173 14.173-14.173h128.654c7.828 0 14.173 6.346 14.173 14.173s-6.346 14.173-14.173 14.173z" fill="#f5f4f9"/><circle cx="304.089" cy="281.853" fill="#c182f9" r="5.59"/><circle cx="321" cy="281.853" fill="#c182f9" r="5.59"/><circle cx="337.911" cy="281.853" fill="#c182f9" r="5.59"/><path d="M340.894 325.64H301.32a3 3 0 01-3-3v-11.5a3 3 0 013-3h39.574a3 3 0 013 3v11.5a3 3 0 01-3 3z" fill="#ffa052"/><path d="M176.359 292.098h-66.586a5.123 5.123 0 010-10.246h66.586a5.123 5.123 0 010 10.246z" fill="#ddd9e4"/><path d="M158.359 311.098h-30.586a5.123 5.123 0 010-10.246h30.586a5.123 5.123 0 010 10.246z" fill="#c182f9"/><path d="M374.211 453.376a4.984 4.984 0 01-3.536-1.465l-10.994-10.994a4.998 4.998 0 010-7.07l10.994-10.994a5 5 0 017.071 0l10.994 10.994a4.998 4.998 0 010 7.07l-10.994 10.994a4.98 4.98 0 01-3.535 1.465zm-3.923-15.994l3.923 3.923 3.923-3.923-3.923-3.923zM131.453 95.439a4.984 4.984 0 01-3.536-1.465L116.923 82.98a4.998 4.998 0 010-7.07l10.994-10.994a5 5 0 017.071 0l10.994 10.994a4.998 4.998 0 010 7.07l-10.994 10.994a4.98 4.98 0 01-3.535 1.465zm-3.923-15.994l3.923 3.923 3.923-3.923-3.923-3.923z" fill="#ffa052"/><path d="M181.481 72.263a4.984 4.984 0 01-3.536-1.465l-10.994-10.994a4.998 4.998 0 010-7.07l10.994-10.994a5 5 0 017.071 0l10.994 10.994a4.998 4.998 0 010 7.07l-10.994 10.994a4.982 4.982 0 01-3.535 1.465zm-3.922-15.994l3.923 3.923 3.923-3.923-3.923-3.923z" fill="#c182f9"/><path d="M410.518 77.765a5 5 0 01-5-5c0-3.318-2.7-6.018-6.018-6.018a5 5 0 110-10 6.025 6.025 0 006.018-6.018 5 5 0 1110 0c0 3.318 2.7 6.018 6.018 6.018a5 5 0 110 10 6.025 6.025 0 00-6.018 6.018 5 5 0 01-5 5z" fill="#ffe783"/></svg>