<svg height="77" viewBox="0 0 512 512" width="70" xmlns="http://www.w3.org/2000/svg"><linearGradient id="a" gradientUnits="userSpaceOnUse" x1="175.918" x2="833.668" y1="256.002" y2="256.002"><stop offset=".001" stop-color="#fff0d5"/><stop offset=".511" stop-color="#ffdfff"/><stop offset="1" stop-color="#d9ceff"/></linearGradient><path d="M482.969 143.723c-34.945-35.948-89.48-40.907-129.831-14.878a50.941 50.941 0 01-38.717 6.927c-31.565-7.009-64.584-2.222-92.707 13.042-18.907 10.261-41.936 8.477-59.579-3.83-11.712-8.169-25.312-14.023-40.257-16.777C66.44 117.99 12.541 154.76 1.884 210.115-9.015 266.723 28.512 321.127 85.08 331.203c13.821 2.462 27.488 2.047 40.388-.816 20.936-4.646 42.81 3.122 56.321 19.776 8.528 10.512 18.812 19.894 30.757 27.689 61.731 40.28 144.427 22.89 184.707-38.84l.128-.196c7.377-11.349 18.851-19.44 32.12-22.119 19.353-3.907 37.801-13.404 52.756-28.495 39.373-39.732 39.701-104.37.712-144.479z" fill="url(#a)"/><path d="M456.002 105.059v254.25c0 8.28-6.72 15-15 15h-370c-8.28 0-15-6.72-15-15v-254.25c0-8.28 6.72-15 15-15h370c8.28 0 15 6.72 15 15z" fill="#590bb2" opacity=".1"/><path d="M312.712 468.015H199.291l22.682-89.904h68.057z" fill="#afabc6"/><path d="M297.93 409.413h-83.857l7.9-31.302h68.057z" fill="#8e8ca8"/><path d="M455.998 126.058v254.25c0 8.28-6.72 15-15 15h-370c-8.28 0-15-6.72-15-15v-254.25c0-8.28 6.72-15 15-15h370c8.28 0 15 6.72 15 15z" fill="#f5f4f9"/><path d="M440.998 111.058h-68.72v284.25h68.72c8.28 0 15-6.72 15-15v-254.25c0-8.28-6.72-15-15-15z" fill="#ffd5b8"/><path d="M256.002 198.552l-86 72.633h20a3 3 0 013 3v79.852h126v-79.852a3 3 0 013-3h20z" fill="#ffbe92"/><path d="M342 276.185a4.984 4.984 0 01-3.224-1.18l-82.774-69.908-82.774 69.908a5 5 0 01-6.452-7.641l86-72.633a5.003 5.003 0 016.452 0l86 72.633a5.002 5.002 0 01-3.228 8.821z" fill="#ffa052"/><path d="M260.335 354.037h-42v-67.665a5 5 0 015-5h32a5 5 0 015 5z" fill="#c182f9"/><circle cx="285.263" cy="294.038" fill="#ffeadc" r="12.667"/><path d="M456.002 159.233v-33.171c0-8.284-6.716-15-15-15h-370c-8.284 0-15 6.716-15 15v33.171z" fill="#c182f9"/><path d="M56.002 344.919v35.39c0 8.284 6.716 15 15 15h370c8.284 0 15-6.716 15-15v-35.39z" fill="#cecae0"/><g fill="#590bb2"><path d="M94.084 140.22a5 5 0 005-5v-.146a5 5 0 10-10 0v.146a5 5 0 005 5zm19.325 0a5 5 0 005-5v-.146a5 5 0 10-10 0v.146a5 5 0 005 5zm19.324 0a5 5 0 005-5v-.146a5 5 0 10-10 0v.146a5 5 0 005 5z"/><path d="M441.002 106.062h-370c-11.028 0-20 8.972-20 20v254.247c0 11.028 8.972 20 20 20h140.214l-15.819 62.701h-15.329a5 5 0 100 10h151.868a5 5 0 100-10h-15.33l-15.819-62.701h34.721a5 5 0 100-10H71.002c-5.514 0-10-4.486-10-10v-30.39h390v30.39c0 5.514-4.486 10-10 10h-77.954a5 5 0 100 10h77.954c11.028 0 20-8.972 20-20V126.062c0-11.028-8.972-20-20-20zM306.292 463.01H205.71l15.819-62.701h68.945zM61.002 339.919V126.062c0-5.514 4.486-10 10-10h370c5.514 0 10 4.486 10 10v28.171H83.542a5 5 0 100 10h367.459V339.92H61.002z"/></g><path d="M124.295 219.265H89.709a5.007 5.007 0 110-10.014h34.586a5.007 5.007 0 110 10.014z" fill="#ddd9e4"/><path d="M429.295 254.835h-34.586a5.007 5.007 0 110-10.014h34.586a5.007 5.007 0 110 10.014zm0 21.357h-34.586a5.007 5.007 0 110-10.014h34.586a5.007 5.007 0 110 10.014zm0 21.357h-34.586a5.007 5.007 0 110-10.014h34.586a5.007 5.007 0 110 10.014z" fill="#ffbe92"/><path d="M166.295 192.481H89.709a5.007 5.007 0 110-10.014h76.586a5.007 5.007 0 110 10.014z" fill="#fdd250"/><path d="M124.295 237.05H89.709a5.007 5.007 0 110-10.014h34.586a5.007 5.007 0 110 10.014zm0 17.785H89.709a5.007 5.007 0 110-10.014h34.586a5.007 5.007 0 110 10.014z" fill="#ffbe92"/><circle cx="395.175" cy="186.698" fill="#ffa052" r="5.603"/><circle cx="395.175" cy="206.648" fill="#ffa052" r="5.603"/><circle cx="395.175" cy="226.597" fill="#ffa052" r="5.603"/><path d="M118.409 292.514c0-9.16-7.453-16.613-16.613-16.613s-16.613 7.453-16.613 16.613c0 4.518 1.818 8.615 4.755 11.613-2.936 2.998-4.755 7.095-4.755 11.613a5 5 0 1010 0c0-3.646 2.967-6.613 6.613-6.613s6.613 2.967 6.613 6.613a5 5 0 1010 0c0-4.518-1.818-8.615-4.755-11.613 2.937-2.998 4.755-7.095 4.755-11.613zm-16.614-6.613c3.646 0 6.613 2.967 6.613 6.613s-2.967 6.613-6.613 6.613-6.613-2.967-6.613-6.613 2.967-6.613 6.613-6.613z" fill="#c182f9"/><path d="M400.778 71.021a5 5 0 01-5-5 6.023 6.023 0 00-6.016-6.016 5 5 0 110-10 6.022 6.022 0 006.016-6.016 5 5 0 1110 0 6.023 6.023 0 006.016 6.016 5 5 0 110 10 6.022 6.022 0 00-6.016 6.016 5 5 0 01-5 5z" fill="#ffe783"/><path d="M165.445 441.027a5 5 0 01-5-5 6.023 6.023 0 00-6.016-6.016 5 5 0 110-10 6.022 6.022 0 006.016-6.016 5 5 0 1110 0 6.023 6.023 0 006.016 6.016 5 5 0 110 10 6.022 6.022 0 00-6.016 6.016 5 5 0 01-5 5zm-58.443 14.678a5 5 0 01-5-5 6.023 6.023 0 00-6.016-6.016 5 5 0 110-10 6.022 6.022 0 006.016-6.016 5 5 0 1110 0 6.023 6.023 0 006.016 6.016 5 5 0 110 10 6.022 6.022 0 00-6.016 6.016 5 5 0 01-5 5z" fill="#c182f9"/><path d="M346.284 83.995a4.984 4.984 0 01-3.536-1.465l-10.994-10.994a4.998 4.998 0 010-7.07l10.994-10.994a5 5 0 017.071 0l10.994 10.994a4.998 4.998 0 010 7.07L349.82 82.53a4.988 4.988 0 01-3.536 1.465zM342.361 68l3.923 3.923L350.207 68l-3.923-3.923z" fill="#ffa052"/></svg>