<svg xmlns="http://www.w3.org/2000/svg" viewBox="0 0 511.993 511.993"><linearGradient id="a" gradientUnits="userSpaceOnUse" x1="69.654" y1="448.212" x2="416.136" y2="101.73" gradientTransform="matrix(1.0449 0 0 -1.0449 2.2 543.309)"><stop offset="0" stop-color="#2499ff"/><stop offset="1" stop-color="#004db1"/></linearGradient><circle cx="255.996" cy="255.996" r="255.996" fill="url(#a)"/><linearGradient id="b" gradientUnits="userSpaceOnUse" x1="103.446" y1="346.521" x2="317.786" y2="132.181" gradientTransform="matrix(1.0449 0 0 -1.0449 2.2 543.309)"><stop offset="0" stop-color="#fff"/><stop offset="1" stop-color="#c8c6cc"/></linearGradient><path d="M199.551 209.916c7.116-7.116 8.921-16.847 4.033-21.735l-83.395-83.395c-4.888-4.888-14.619-3.082-21.735 4.033l-7.45 7.45c-36.309 36.309-45.607 86.423-20.664 111.366l1.829 1.829 8.567 8.567 61.556 61.556c10.487 10.489 20.171 20.171 27.346 27.346l15.431 15.431 27.346 27.346 61.556 61.556 8.567 8.567 1.829 1.829c24.943 24.943 75.058 15.644 111.366-20.664l7.45-7.45c7.116-7.116 8.921-16.847 4.033-21.735l-83.395-83.395c-4.888-4.888-14.619-3.082-21.735 4.033l-7.45 7.45a135.408 135.408 0 00-5.602 5.974l.001-.026c-6.935 6.935-21.37 7.007-31.804-3.426l-67.651-67.651c-10.434-10.434-10.361-24.868-3.426-31.804l-.026.001a135.408 135.408 0 005.974-5.602l7.449-7.451z" fill="url(#b)"/><linearGradient id="c" gradientUnits="userSpaceOnUse" x1="132.636" y1="375.701" x2="346.976" y2="161.371" gradientTransform="matrix(1.0449 0 0 -1.0449 2.2 543.309)"><stop offset="0" stop-color="#00e8f2"/><stop offset=".21" stop-color="#00e3f1"/><stop offset=".449" stop-color="#00d6ef"/><stop offset=".702" stop-color="#00bfeb"/><stop offset=".964" stop-color="#009fe6"/><stop offset="1" stop-color="#009ae5"/></linearGradient><path d="M192.101 217.366l7.45-7.45c7.116-7.116 8.921-16.847 4.033-21.735l-83.395-83.395c-4.888-4.888-14.619-3.082-21.735 4.033l-7.45 7.45c-1.69 1.69-3.321 3.41-4.893 5.157l100.816 100.816a133.248 133.248 0 005.174-4.876z" fill="url(#c)"/><linearGradient id="d" gradientUnits="userSpaceOnUse" x1="132.631" y1="375.697" x2="346.971" y2="161.367" gradientTransform="matrix(1.0449 0 0 -1.0449 2.2 543.309)"><stop offset="0" stop-color="#00e8f2"/><stop offset=".21" stop-color="#00e3f1"/><stop offset=".449" stop-color="#00d6ef"/><stop offset=".702" stop-color="#00bfeb"/><stop offset=".964" stop-color="#009fe6"/><stop offset="1" stop-color="#009ae5"/></linearGradient><path d="M302.084 312.449l-7.45 7.45a132.456 132.456 0 00-4.875 5.174l100.816 100.816a137.292 137.292 0 005.156-4.893l7.45-7.45c7.116-7.116 8.921-16.847 4.033-21.735l-83.395-83.395c-4.888-4.888-14.619-3.082-21.735 4.033z" fill="url(#d)"/><linearGradient id="e" gradientUnits="userSpaceOnUse" x1="229.195" y1="472.258" x2="443.524" y2="257.92" gradientTransform="matrix(1.0449 0 0 -1.0449 2.2 543.309)"><stop offset="0" stop-color="#fff"/><stop offset="1" stop-color="#c8c6cc"/></linearGradient><path d="M226.152 57.085l-7.876-.745-2.557 27.101 7.875.743c52.314 4.938 101.623 28.156 138.845 65.377 37.22 37.22 60.437 86.529 65.377 138.845l.744 7.876 27.099-2.559-.744-7.875c-5.533-58.607-31.54-113.843-73.23-155.533-41.689-41.69-96.925-67.697-155.533-73.23z" fill="url(#e)"/><linearGradient id="f" gradientUnits="userSpaceOnUse" x1="195.774" y1="438.849" x2="410.114" y2="224.51" gradientTransform="matrix(1.0449 0 0 -1.0449 2.2 543.309)"><stop offset="0" stop-color="#fff"/><stop offset="1" stop-color="#c8c6cc"/></linearGradient><path d="M230.421 114.682l-7.762-1.53-5.259 26.705 7.761 1.529c35.997 7.093 68.786 24.602 94.819 50.634 26.033 26.033 43.541 58.821 50.633 94.817l1.529 7.761 26.705-5.259-1.53-7.762c-8.138-41.315-28.224-78.939-58.09-108.805-29.866-29.865-67.491-49.952-108.806-58.09z" fill="url(#f)"/></svg>